<?xml version="1.0" standalone="no"?>
<!DOCTYPE svg PUBLIC "-//W3C//DTD SVG 20010904//EN"
 "http://www.w3.org/TR/2001/REC-SVG-20010904/DTD/svg10.dtd">
<svg version="1.0" xmlns="http://www.w3.org/2000/svg"
 width="512.000000pt" height="512.000000pt" viewBox="0 0 512.000000 512.000000"
 preserveAspectRatio="xMidYMid meet">
<metadata>
Created by potrace 1.11, written by Peter Selinger 2001-2013
</metadata>
<g transform="translate(0.000000,512.000000) scale(0.100000,-0.100000)"
fill="#000000" stroke="none">
<path d="M2134 3849 c-1 -346 -2 -630 -5 -632 -2 -2 -58 -27 -124 -57 -66 -29
-151 -68 -190 -85 -38 -18 -90 -42 -115 -53 -25 -11 -249 -113 -498 -226 -250
-113 -455 -206 -457 -206 -1 0 -56 -25 -121 -56 -66 -30 -132 -61 -149 -69
-16 -7 -59 -27 -95 -43 -36 -16 -88 -39 -116 -51 l-51 -22 0 -959 0 -958 31
-4 c17 -1 1073 -3 2346 -2 l2315 0 1 1707 0 1708 -20 4 c-12 3 -91 21 -176 41
-85 20 -164 38 -175 40 -11 2 -87 20 -170 39 -82 19 -220 51 -305 71 -85 19
-162 37 -170 39 -8 2 -96 22 -195 45 -471 109 -543 126 -780 179 -240 54 -411
95 -415 100 -3 3 -16 7 -30 7 -29 2 -41 4 -180 38 -58 13 -117 27 -131 29
l-25 5 0 -629z m561 64 c33 -8 68 -17 79 -19 24 -4 181 -41 276 -65 41 -10 91
-21 110 -24 19 -3 80 -17 135 -30 55 -13 161 -38 235 -56 204 -47 207 -48 235
-53 11 -2 49 -11 85 -20 116 -28 244 -57 270 -62 14 -3 63 -14 110 -25 47 -11
114 -27 150 -35 36 -9 73 -18 83 -20 16 -5 17 -74 15 -1327 l-3 -1322 -210 0
-210 0 -2 400 c0 220 -2 412 -2 426 l-1 26 -532 -1 -532 -1 0 -425 -1 -425
-212 -1 -213 -1 0 1544 0 1544 38 -7 c20 -3 64 -13 97 -21z m-565 -2111 l0
-949 -212 1 -211 1 -1 426 0 426 -318 0 c-316 0 -318 0 -319 -21 0 -12 -2
-203 -2 -426 l-2 -405 -212 -1 -213 -1 0 609 0 609 67 31 c38 16 91 41 118 53
28 13 82 38 120 55 39 18 93 43 120 55 28 13 127 58 220 100 94 43 195 89 225
102 199 91 344 157 420 191 19 8 71 32 115 53 44 21 81 38 83 38 1 1 2 -426 2
-947z"/>
<path d="M3420 3184 c-130 -47 -209 -152 -216 -287 -4 -81 12 -138 56 -201 31
-47 111 -106 160 -120 157 -45 311 21 386 164 26 48 29 65 29 140 -1 67 -6 95
-24 133 -28 61 -92 126 -152 155 -63 30 -178 38 -239 16z"/>
</g>
</svg>
