<?xml version="1.0" standalone="no"?>
<!DOCTYPE svg PUBLIC "-//W3C//DTD SVG 20010904//EN"
 "http://www.w3.org/TR/2001/REC-SVG-20010904/DTD/svg10.dtd">
<svg version="1.0" xmlns="http://www.w3.org/2000/svg"
 width="134.000000pt" height="134.000000pt" viewBox="0 0 134.000000 134.000000"
 preserveAspectRatio="xMidYMid meet">
<metadata>
Created by potrace 1.14, written by Peter Selinger 2001-2017
</metadata>
<g transform="translate(0.000000,134.000000) scale(0.100000,-0.100000)"
fill="#000000" stroke="none">
<path d="M324 1329 c-14 -24 -16 -87 -2 -95 15 -10 14 -9 94 -18 32 -4 66 -9
74 -11 8 -2 87 -14 175 -25 88 -12 171 -23 185 -25 14 -2 50 -7 80 -10 30 -4
58 -9 62 -11 12 -8 50 17 45 29 -2 7 0 22 4 34 10 28 -12 53 -49 54 -15 0 -36
2 -47 5 -11 2 -40 6 -65 9 -25 4 -72 10 -105 15 -33 5 -80 12 -105 15 -25 3
-63 8 -85 11 -22 3 -51 7 -65 9 -14 2 -43 6 -65 9 -114 16 -124 16 -131 5z"/>
<path d="M282 678 c4 -339 6 -377 23 -418 56 -132 130 -197 259 -229 55 -13
171 -13 226 1 89 23 167 82 213 161 51 86 56 132 57 509 l0 348 -50 0 -50 0
-1 -317 c-1 -398 -1 -399 -39 -473 -80 -156 -348 -183 -465 -47 -64 75 -68 97
-71 447 -2 173 -3 332 -4 353 l0 37 -51 0 -50 0 3 -372z"/>
<path d="M509 696 c-41 -20 -61 -94 -61 -232 0 -137 13 -176 76 -232 118 -103
334 -46 375 100 15 52 9 270 -7 311 -17 40 -41 46 -66 14 -47 -58 -97 -56
-191 8 -58 39 -93 48 -126 31z"/>
</g>
</svg>
